<svg id="Calque_1" data-name="Calque 1" xmlns="http://www.w3.org/2000/svg" width="916.2" height="418.85" viewBox="0 0 916.2 418.85"><defs><style>.cls-1{fill:#fff;}.cls-2{fill:#e52620;}.cls-3{isolation:isolate;}.cls-4{fill:#c6c6c6;}</style></defs><title>777.ch+CasinoDavos_Alternative_chag</title><circle class="cls-1" cx="649" cy="237.2" r="14.8"/><path class="cls-2" d="M261.9,430.1a212.44,212.44,0,0,1,89.9-173.7l-5.5-42.7c-31.7,9.7-63.4,1.6-63.9,1.5-77-21-101.9.5-101.9.5h0l-2.7-9.9h-22l-22.9,88.5,42,10.9,9-35.1h99.5c0,.1-.1.2-.1.3-76.4,29.1-131.8,101-136.7,186.5h117A197.8,197.8,0,0,1,261.9,430.1Z" transform="translate(-132.9 -205.8)"/><path class="cls-2" d="M493.8,430.1a212.44,212.44,0,0,1,89.9-173.7l-5.5-42.7c-31.7,9.7-63.4,1.6-63.9,1.5-77-21-101.9.5-101.9.5h0l-2.7-9.9h-22l-22.9,88.5,42,10.9,9-35.1h99.5c0,.1-.1.2-.1.3-76.4,29.1-131.8,101-136.7,186.5h117A197.8,197.8,0,0,1,493.8,430.1Z" transform="translate(-132.9 -205.8)"/><path class="cls-2" d="M815.4,256.4l-5.5-42.7c-31.7,9.7-63.4,1.6-63.9,1.5-77-21-101.9.5-101.9.5h0l-2.7-9.9h-22l-22.9,88.5,42,10.9,9-35.1H747c0,.1-.1.2-.1.3-76.4,29.1-131.8,101-136.7,186.5h117a212.68,212.68,0,0,1,88.2-200.5Z" transform="translate(-132.9 -205.8)"/><g class="cls-3"><path class="cls-1" d="M923.1,421c-2,11.5-6.9,20.6-14.7,27.2s-17.3,9.9-28.5,9.9c-12.6,0-23.2-4.3-31.8-13a37,37,0,0,1-10.3-19.6c-.9-5.2-1.4-15.5-1.4-30.8s.5-25.5,1.4-30.8a37.69,37.69,0,0,1,10.3-19.6,43.3,43.3,0,0,1,31.8-13c11.3,0,20.8,3.3,28.5,9.8s12.6,15.6,14.7,27.3H909.5c-1.6-7.7-5-13.8-10.2-18.4s-11.6-6.8-19.3-6.8c-8.6,0-15.8,2.9-21.5,8.8a27.85,27.85,0,0,0-7.3,14.5c-.9,5.1-1.4,14.5-1.4,28.2s.5,23,1.4,28.2a28.61,28.61,0,0,0,7.3,14.5,31,31,0,0,0,41,2c5.3-4.5,8.8-10.7,10.4-18.4Z" transform="translate(-132.9 -205.8)"/><path class="cls-1" d="M1034.4,457h-13.3V400.1H961.9V457H948.6V332.4h13.3v55.8h59.2V332.4h13.3Z" transform="translate(-132.9 -205.8)"/></g><g class="cls-3"><path class="cls-4" d="M350.4,570.2c-1.2,7.2-4.3,12.9-9.2,17a28.57,28.57,0,0,1-37.7-1.9,22.94,22.94,0,0,1-6.4-12.2q-.9-5-.9-19.2t.9-19.2a22.94,22.94,0,0,1,6.4-12.2,27,27,0,0,1,19.9-8.1c7.1,0,13,2,17.8,6.1s7.9,9.7,9.2,17h-8.5a20.21,20.21,0,0,0-6.4-11.5,17.89,17.89,0,0,0-12.1-4.3,17.71,17.71,0,0,0-18,14.6c-.6,3.2-.9,9.1-.9,17.6s.3,14.4.9,17.6a18,18,0,0,0,4.6,9.1,18.17,18.17,0,0,0,13.4,5.5,17.84,17.84,0,0,0,12.2-4.3,20,20,0,0,0,6.5-11.5h8.3Z" transform="translate(-132.9 -205.8)"/><path class="cls-4" d="M420.9,592.7H412l-6.2-17.6H371.9l-6.2,17.6h-8.8L385.5,515h7Zm-17.5-24.8-14.4-41-14.6,41Z" transform="translate(-132.9 -205.8)"/><path class="cls-4" d="M478.4,571.3c0,6.8-2.4,12.1-7.3,16.1s-11.4,5.9-19.5,5.9c-10.9,0-19.8-3.4-26.6-10.3l5.7-5.7c5.7,5.7,12.7,8.5,21.2,8.5,5.7,0,10.1-1.3,13.4-3.8s4.9-6.1,4.9-10.6c0-4.3-1.2-7.5-3.7-9.7-2-1.7-5.3-3-10.1-3.7l-9.1-1.4c-13.5-2.1-20.2-8.9-20.2-20.4,0-6.6,2.2-11.9,6.7-15.9s10.5-6,18.2-6c9.1,0,16.8,2.8,23.1,8.5l-5.3,5.3a26.12,26.12,0,0,0-18.1-6.7q-7.65,0-12,3.9a13.44,13.44,0,0,0-4.4,10.5q0,5.85,3.6,9c2.4,2.1,5.9,3.5,10.4,4.2l8.5,1.3c6.3.9,11.1,2.8,14.2,5.5C476.2,559.6,478.4,564.8,478.4,571.3Z" transform="translate(-132.9 -205.8)"/><path class="cls-4" d="M501.9,592.7h-8.3V515h8.3Z" transform="translate(-132.9 -205.8)"/><path class="cls-4" d="M579.8,592.7H572l-41.2-62.3v62.3h-8.3V515h7.9l41.2,62.1V515h8.3v77.7Z" transform="translate(-132.9 -205.8)"/><path class="cls-4" d="M651.7,553.9q0,14.25-.9,19.2a22.94,22.94,0,0,1-6.4,12.2,28.5,28.5,0,0,1-39.8,0,22.94,22.94,0,0,1-6.4-12.2q-.9-5-.9-19.2t.9-19.2a22.94,22.94,0,0,1,6.4-12.2,28.5,28.5,0,0,1,39.8,0,22.94,22.94,0,0,1,6.4,12.2Q651.7,539.5,651.7,553.9Zm-8.3,0c0-8.5-.3-14.3-.9-17.5a18.53,18.53,0,0,0-31.4-9.1,17.57,17.57,0,0,0-4.6,9.1c-.6,3.1-.9,8.9-.9,17.5s.3,14.3.9,17.5a18.53,18.53,0,0,0,31.4,9.1,17.57,17.57,0,0,0,4.6-9.1C643.1,568.2,643.4,562.4,643.4,553.9Z" transform="translate(-132.9 -205.8)"/></g><g class="cls-3"><path class="cls-1" d="M861.4,592.7H845.6L841,579H813.4l-4.7,13.7H792.9L821.2,515h11.9ZM837,566.2l-9.5-28.3-9.8,28.3Z" transform="translate(-132.9 -205.8)"/><path class="cls-1" d="M923.1,515l-25.7,77.7H886L860.3,515H876l15.6,50.6L907.2,515Z" transform="translate(-132.9 -205.8)"/><path class="cls-1" d="M985.3,553.9c0,8.4-.3,14.3-1,17.6a23.64,23.64,0,0,1-6.8,13.4,30.19,30.19,0,0,1-42,0,25.63,25.63,0,0,1-6.8-13.4c-.6-3.2-.9-9.1-.9-17.6s.3-14.4.9-17.6a24.58,24.58,0,0,1,6.8-13.4,28.57,28.57,0,0,1,21.1-8.5,28.12,28.12,0,0,1,20.9,8.5,24.6,24.6,0,0,1,6.8,13.4C984.9,539.6,985.3,545.4,985.3,553.9Zm-15.2,0c0-6-.1-9.7-.2-11.3q-.6-7.2-3.6-10.5a12.28,12.28,0,0,0-9.7-4.1,12.67,12.67,0,0,0-9.8,4.1c-1.9,2.2-3.1,5.7-3.5,10.5-.1,1.3-.2,5.1-.2,11.3s.1,10,.2,11.3c.4,4.8,1.6,8.3,3.5,10.5a13.57,13.57,0,0,0,20.4-1.1C969.1,571.9,970.1,565,970.1,553.9Z" transform="translate(-132.9 -205.8)"/><path class="cls-1" d="M1049.1,569.8c0,7.3-2.7,13.1-8.1,17.3s-12.3,6.3-20.7,6.3c-12.1,0-21.6-3.4-28.4-10.3l9.8-9.8c4.4,4.4,10.6,6.5,18.8,6.5,9.2,0,13.7-3.2,13.7-9.6,0-2.9-.8-5.1-2.3-6.5s-3.9-2.3-7-2.8l-9.4-1.3c-13.7-1.9-20.6-9.1-20.6-21.7,0-7.1,2.4-12.7,7.3-17.1s11.5-6.5,19.7-6.5c10.5,0,18.8,3,25.1,9.1l-9.6,9.5c-3.7-3.6-9-5.3-15.9-5.3-3.9,0-6.8.9-8.9,2.8a9,9,0,0,0-3.1,7,7.37,7.37,0,0,0,2.5,5.7,12.53,12.53,0,0,0,7,2.9l9.2,1.3c6.6.9,11.6,2.9,14.8,6C1047.1,557.1,1049.1,562.6,1049.1,569.8Z" transform="translate(-132.9 -205.8)"/></g><path class="cls-1" d="M719.1,508.9v30.7c-7.5-.7-14.9-.6-22.3,1.5V508.8H685v-3.6c.2,0,.5-.1.7-.1,16.1,0,32.1-.1,48.2,0a60.37,60.37,0,0,1,21.4,3.8c7.2,2.7,12.9,7.6,17.9,13.3a53.36,53.36,0,0,1,12.9,26.4,70.88,70.88,0,0,1,.7,17.2,66.12,66.12,0,0,1-4.5,20.6C775.8,602,765,613.3,749.5,620c-8.9,3.8-18.2,4.9-27.8,4.6-7.7-.3-15.2-1.3-22.4-4-8.7-3.3-15.9-8.5-21.1-16.4-4.6-6.9-6.1-14.6-5.5-22.8a33,33,0,0,1,8.6-20.2,34.8,34.8,0,0,1,21.2-11,64.18,64.18,0,0,1,35.1,4.8c.3.1.8.6.8.9v19.7c0,.1,0,.1-.1.3h-4.2l-1.5-5.4c-1.4-4.3-3.3-8.4-6.6-11.7-6.2-6.3-15.5-5.9-21.2.9a30.74,30.74,0,0,0-6.1,13.2c-2.4,10-2.3,20,1.2,29.7,3.7,10.2,11.2,15.5,22,16.2a38.82,38.82,0,0,0,19-3.2,29.09,29.09,0,0,0,13.2-13.2,67.83,67.83,0,0,0,6.8-22,110.68,110.68,0,0,0,1-19.1c-.4-11.6-2-23-6.9-33.7a44.64,44.64,0,0,0-9-13.3,17,17,0,0,0-10.5-4.8c-5.3-.4-10.6-.4-16-.5C719.3,508.8,719.2,508.8,719.1,508.9Z" transform="translate(-132.9 -205.8)"/></svg>